<?xml version="1.0" encoding="utf-8"?>
<!-- Generator: Adobe Illustrator 19.2.1, SVG Export Plug-In . SVG Version: 6.00 Build 0)  -->
<svg version="1.1" xmlns="http://www.w3.org/2000/svg" xmlns:xlink="http://www.w3.org/1999/xlink" x="0px" y="0px"
	 viewBox="0 0 177.5 93" style="enable-background:new 0 0 177.5 93;" xml:space="preserve">
<style type="text/css">
	.st0{opacity:0.1;}
	.st1{fill:#231F20;stroke:#231F20;stroke-width:0.4;stroke-miterlimit:10;}
	.st2{fill:#979797;stroke:#979797;stroke-width:0.4;stroke-miterlimit:10;}
</style>
<g id="Layer_2">
	<g class="st0">
		<path d="M170.3,70.4c-0.1,0.3-0.3,0.6-0.5,0.9c-0.3,0.5-0.7,0.8-1.1,1c-0.4,0.2-0.9,0.1-1.4-0.2c-0.5-0.4-0.8-0.8-0.8-1.2
			c-0.1-0.5,0.1-1,0.5-1.5c0.2-0.3,0.4-0.6,0.5-0.7L170.3,70.4z M167.6,69.5c0,0-0.1,0.1-0.2,0.2c-0.4,0.6-0.3,1.2,0.4,1.6
			c0.6,0.4,1.1,0.2,1.5-0.3c0.1-0.1,0.1-0.2,0.2-0.3L167.6,69.5z"/>
		<path d="M160.7,79.1l0.9-0.9l-0.6-0.6l-1,1l-0.4-0.5l1.6-1.5l2.3,2.4l-1.5,1.4l-0.4-0.5l1-0.9l-0.5-0.5l-0.9,0.9L160.7,79.1z"/>
		<path d="M151.9,85.2c0.2,0.3,0.5,0.8,0.7,1.2l0,0c-0.1-0.4-0.2-0.9-0.3-1.3l-0.3-1.3l0.5-0.3l1,1c0.3,0.3,0.6,0.6,0.9,1l0,0
			c-0.2-0.4-0.5-0.9-0.6-1.2l-0.6-1.1l0.6-0.4l1.5,3l-0.9,0.5l-0.8-0.8c-0.3-0.3-0.6-0.6-0.8-0.9l0,0c0.1,0.4,0.2,0.8,0.3,1.2
			l0.2,1.2l-0.9,0.5l-1.8-2.8l0.6-0.4L151.9,85.2z"/>
		<path d="M143.2,88.3l0-0.9l0.8-0.2l-0.1,3.5l-1,0.3l-1.9-3l0.8-0.2l0.5,0.8L143.2,88.3z M142.5,89.1l0.4,0.6
			c0.1,0.2,0.2,0.4,0.3,0.6l0,0c0-0.2,0-0.5,0-0.7l0-0.7L142.5,89.1z"/>
		<path d="M133.7,89.1l0.1,3.4l-0.9,0l-0.7-1.2c-0.2-0.3-0.4-0.8-0.6-1.1l0,0c0.1,0.4,0.1,0.9,0.1,1.4l0,1l-0.7,0l-0.1-3.4l0.8,0
			l0.8,1.3c0.2,0.4,0.4,0.8,0.6,1.2l0,0c0-0.4-0.1-0.9-0.1-1.5l0-1L133.7,89.1z"/>
		<path d="M122.8,91.8c-0.3,0-0.6-0.1-1-0.1c-0.6-0.1-1-0.3-1.3-0.6c-0.3-0.3-0.4-0.8-0.3-1.4c0.1-0.6,0.5-1,0.8-1.2
			c0.4-0.2,1-0.2,1.6-0.1c0.4,0.1,0.7,0.2,0.8,0.2L122.8,91.8z M122.6,88.9c-0.1,0-0.2,0-0.3-0.1c-0.7-0.1-1.2,0.1-1.4,0.9
			c-0.1,0.7,0.2,1.1,0.8,1.3c0.2,0,0.3,0,0.3,0L122.6,88.9z"/>
	</g>
	<g class="st0">
		<path d="M101.7,10.7l1.6-1.3l0.4,0.5l-1,0.8l0.5,0.6l1-0.7l0.4,0.5l-1,0.7l0.8,1.1l-0.6,0.5L101.7,10.7z"/>
		<path d="M111.8,7.2l0.2,0.9l-0.7,0.3l-0.5-3.5l0.9-0.4l2.4,2.6l-0.7,0.4l-0.6-0.7L111.8,7.2z M112.3,6.3l-0.5-0.6
			c-0.1-0.2-0.3-0.4-0.4-0.5l0,0c0,0.2,0.1,0.5,0.1,0.7l0.1,0.7L112.3,6.3z"/>
		<path d="M120.8,4c0.2,0.1,0.6,0.1,0.9,0c0.3-0.1,0.5-0.3,0.4-0.5c0-0.2-0.2-0.3-0.7-0.3c-0.6-0.1-1-0.3-1.1-0.8
			c-0.1-0.6,0.3-1.1,1-1.3c0.4-0.1,0.7-0.1,0.9,0l0,0.6c-0.1,0-0.4-0.1-0.7,0s-0.4,0.2-0.4,0.4c0,0.2,0.3,0.3,0.7,0.3
			c0.6,0.1,1,0.3,1.1,0.8c0.1,0.6-0.2,1.1-1.1,1.3c-0.4,0.1-0.8,0.1-1,0L120.8,4z"/>
		<path d="M131.3,0.3l0,1.3l1.3,0l0-1.3l0.8,0l-0.1,3.4l-0.8,0l0-1.4l-1.3,0l0,1.4l-0.8,0l0.1-3.4L131.3,0.3z"/>
		<path d="M142.2,1.7L141.4,5l-0.7-0.2l0.8-3.3L142.2,1.7z"/>
		<path d="M152.1,7.3c-0.5,1-1.4,1.3-2.3,0.9c-0.9-0.4-1.1-1.4-0.7-2.2c0.4-0.9,1.4-1.3,2.3-0.9C152.3,5.5,152.5,6.4,152.1,7.3z
			 M149.9,6.2c-0.3,0.6-0.2,1.1,0.2,1.4c0.5,0.2,0.9-0.1,1.2-0.7c0.3-0.5,0.2-1.1-0.2-1.4C150.6,5.3,150.1,5.6,149.9,6.2z"/>
		<path d="M157.4,12.9l2.2-2.6l0.7,0.6l-0.3,1.4c-0.1,0.4-0.2,0.9-0.3,1.2l0,0c0.2-0.4,0.5-0.7,0.9-1.1l0.6-0.8l0.5,0.5l-2.2,2.6
			l-0.6-0.5l0.3-1.5c0.1-0.4,0.2-0.9,0.3-1.3l0,0c-0.3,0.4-0.6,0.7-0.9,1.1l-0.7,0.8L157.4,12.9z"/>
		<path d="M175.3,34l-3.2,0.9l-0.2-0.7l3.2-0.9L175.3,34z"/>
		<path d="M173.5,42.3l3.4-0.2l0.1,0.9l-1.2,0.8c-0.3,0.2-0.7,0.4-1.1,0.6l0,0c0.4-0.1,0.9-0.1,1.4-0.2l1-0.1l0,0.7l-3.4,0.2l0-0.8
			l1.3-0.8c0.3-0.2,0.8-0.5,1.2-0.7l0,0c-0.4,0-0.9,0.1-1.5,0.1l-1,0.1L173.5,42.3z"/>
	</g>
</g>
<g id="Layer_1">
	<g>
		<g>
			<g>
				<g>
					<path class="st1" d="M14.3,75.2H1.5V45.9h0.9v28.4h12l0.1,0.2L14.3,75.2z"/>
					<path class="st1" d="M44.2,75.2l-0.6-2l-2.9-7.8H26.8l-3.1,7.8l-0.6,2H22l11.7-29.3h0.9l10.7,29.3H44.2z M34.1,47.5h-0.2
						l-6.8,17h13.2L34.1,47.5z"/>
					<path class="st1" d="M70,46.8h-9v28.4h-0.9V46.8H51l-0.1-0.2l0.2-0.7h19l0.1,0.2L70,46.8z"/>
					<path class="st1" d="M96.7,75.2H82.4V45.9h14.2l0.1,0.2l-0.2,0.7H83.3v12.7h10.9l0.1,0.2l-0.2,0.7H83.3v13.8h13.4l0.1,0.2
						L96.7,75.2z"/>
					<path class="st1" d="M121.1,47.1l-0.2,0.8h-0.3c-1.7-0.9-3.4-1.3-5.2-1.3c-1.5,0-2.8,0.3-3.9,0.9c-1.1,0.6-1.9,1.4-2.5,2.4
						s-0.9,2-0.9,3.1c0,1.1,0.3,2,0.9,2.8s1.3,1.4,2.1,1.9c0.8,0.5,2,1.1,3.5,1.9c1.7,0.8,3,1.5,3.9,2.2c1,0.6,1.8,1.4,2.5,2.4
						s1,2.1,1,3.5s-0.4,2.6-1.1,3.8c-0.7,1.2-1.8,2.1-3.1,2.8c-1.3,0.7-2.8,1-4.4,1c-1.2,0-2.4-0.2-3.7-0.6
						c-1.3-0.4-2.4-0.9-3.3-1.6v-0.9l0.2-0.1c0.9,0.7,2,1.3,3.2,1.7c1.2,0.4,2.4,0.6,3.5,0.6c1.5,0,2.8-0.3,4-1
						c1.2-0.6,2.1-1.5,2.7-2.5s0.9-2.1,0.9-3.2c0-1.2-0.3-2.2-0.9-3c-0.6-0.8-1.4-1.5-2.2-2.1s-2.1-1.2-3.6-1.9
						c-1.6-0.8-2.9-1.5-3.8-2.1s-1.7-1.4-2.4-2.3c-0.7-0.9-1-2.1-1-3.4c0-1.3,0.4-2.5,1.1-3.6s1.7-2,2.9-2.6c1.3-0.6,2.7-1,4.3-1
						C117.3,45.8,119.2,46.2,121.1,47.1z"/>
					<path class="st1" d="M150,46.8h-9v28.4h-0.9V46.8H131l-0.1-0.2l0.2-0.7h19l0.1,0.2L150,46.8z"/>
				</g>
			</g>
		</g>
		<g>
			<g>
				<path class="st2" d="M52.8,32.8c0.7,0.5,1.7,1,3,1.6c1.2,0.6,2.1,1.1,2.8,1.5c0.7,0.4,1.3,1,1.7,1.6c0.4,0.6,0.7,1.3,0.7,2.2
					h0.7c0-1-0.3-1.9-0.8-2.6c-0.5-0.8-1.2-1.4-1.9-1.9c-0.8-0.5-1.8-1-3.1-1.7c-1.2-0.6-2.1-1.1-2.8-1.5c-0.7-0.4-1.2-0.9-1.7-1.5
					c-0.5-0.6-0.7-1.3-0.7-2.2c0-0.8,0.2-1.6,0.7-2.4c0.5-0.8,1.1-1.4,2-1.9s1.9-0.7,3-0.7c1.4,0,2.7,0.3,4.1,1h0.3l0.1-0.6
					c-1.5-0.7-3-1-4.4-1c-1.2,0-2.4,0.3-3.3,0.8c-1,0.5-1.8,1.2-2.3,2.1c-0.6,0.9-0.8,1.8-0.8,2.8s0.3,1.9,0.8,2.6
					C51.5,31.7,52.1,32.3,52.8,32.8z"/>
				<path class="st2" d="M94.9,32.8c0.7,0.5,1.7,1,3,1.6c1.2,0.6,2.1,1.1,2.8,1.5c0.7,0.4,1.3,1,1.7,1.6c0.4,0.6,0.7,1.3,0.7,2.2
					h0.7c0-1-0.3-1.9-0.8-2.6c-0.5-0.8-1.2-1.4-1.9-1.9c-0.8-0.5-1.8-1-3.1-1.7c-1.2-0.6-2.1-1.1-2.8-1.5c-0.7-0.4-1.2-0.9-1.7-1.5
					c-0.5-0.6-0.7-1.3-0.7-2.2c0-0.8,0.2-1.6,0.7-2.4c0.5-0.8,1.1-1.4,2-1.9s1.9-0.7,3-0.7c1.4,0,2.7,0.3,4.1,1h0.3l0.1-0.6
					c-1.5-0.7-3-1-4.4-1c-1.2,0-2.4,0.3-3.3,0.8c-1,0.5-1.8,1.2-2.3,2.1c-0.6,0.9-0.8,1.8-0.8,2.8s0.3,1.9,0.8,2.6
					C93.5,31.7,94.2,32.3,94.9,32.8z"/>
				<polygon class="st2" points="76.5,23.5 76.5,39.7 77.2,39.7 77.2,23.5 84.2,23.5 84.4,22.9 84.3,22.8 69.4,22.8 69.3,23.3 
					69.4,23.5 				"/>
				<path class="st2" d="M23.3,39.7c-0.5-1.5-0.8-3.3-0.8-5.4c0-3.5,0.8-6.2,2.3-8.1s3.8-2.8,6.7-2.8c2.8,0,4.9,0.9,6.4,2.7
					s2.3,4.4,2.3,7.8c0,2.3-0.3,4.2-0.9,5.8h0.8c0.6-1.6,0.9-3.6,0.9-5.8c0-3.6-0.8-6.4-2.4-8.4c-1.6-1.9-3.9-2.9-7-2.9
					s-5.5,1-7.2,3s-2.5,4.9-2.5,8.7c0,2.1,0.3,3.9,0.8,5.4H23.3z"/>
				<path class="st2" d="M2.1,39.7v-3h3.2c2.5,0,4.4-0.7,5.7-2c1.3-1.3,2-3.2,2-5.6c0-2.1-0.6-3.7-1.7-4.8c-1.1-1.1-2.7-1.7-4.8-1.7
					l-5.1,0.1v17H2.1z M2.1,23.5h4.6c1.8,0.1,3.1,0.6,4.1,1.6s1.4,2.4,1.4,4.1c0,2-0.5,3.6-1.5,4.8c-1,1.2-2.5,1.9-4.3,2.1H2.1V23.5
					z"/>
			</g>
		</g>
	</g>
</g>
<g id="Layer_3">
</g>
</svg>
