<?xml version="1.0" encoding="utf-8"?>
<!-- Generator: Adobe Illustrator 19.2.1, SVG Export Plug-In . SVG Version: 6.00 Build 0)  -->
<svg version="1.1" id="Layer_1" xmlns="http://www.w3.org/2000/svg" xmlns:xlink="http://www.w3.org/1999/xlink" x="0px" y="0px"
	 viewBox="0 0 112.7 67.9" style="enable-background:new 0 0 112.7 67.9;" xml:space="preserve">
<style type="text/css">
	.st0{fill-rule:evenodd;clip-rule:evenodd;fill:#000002;}
</style>
<polygon class="st0" points="12.6,12.3 12.6,32.3 32.7,32.3 32.7,12.3 27.3,12.3 27.2,12.3 27.2,12.2 27.2,10.6 27.2,10.5 
	27.3,10.5 45.2,10.5 45.3,10.5 45.3,10.6 45.3,12.2 45.3,12.3 45.2,12.3 39.8,12.3 39.8,56.1 45.2,56.1 45.3,56.1 45.3,56.2 
	45.3,57.8 45.3,57.9 45.2,57.9 27.3,57.9 27.2,57.9 27.2,57.8 27.2,56.2 27.2,56.1 27.3,56.1 32.7,56.1 32.7,34.6 12.6,34.6 
	12.6,56.1 18,56.1 18.1,56.1 18.1,56.2 18.1,57.8 18.1,57.9 18,57.9 0.1,57.9 0,57.9 0,57.8 0,56.2 0,56.1 0.1,56.1 5.5,56.1 
	5.5,12.3 0.1,12.3 0,12.3 0,12.2 0,10.6 0,10.5 0.1,10.5 18,10.5 18.1,10.5 18.1,10.6 18.1,12.2 18.1,12.3 18,12.3 "/>
<path class="st0" d="M70.6,57.6h5.5V12.7h-5.5h-0.1v-0.1v-1.7v-0.1h0.1H90c6.9,0,12.6,2.3,16.5,6.5c3.9,4.1,6.2,10.1,6.2,17.4
	c0,4-0.7,7.4-1.9,10.5c-1.4,3.5-3.3,6.4-5.7,8.9l0,0c-2.3,2.4-5.2,3.7-8,4.5c-2.8,0.7-5.4,0.9-7.3,0.9H70.6h-0.1v-0.1v-1.7v-0.1
	H70.6L70.6,57.6z M88.6,12.7h-5.3v44.8h7v0c4.2,0,6.9-1.1,8.8-2.6c1.9-1.5,2.9-3.3,3.7-4.9h0c0.7-1.7,1.2-4.1,1.4-6.9
	c0.3-2.9,0.3-6.2,0.3-9.7c0-5.1-0.3-10.3-2.4-14.2C100,15.3,96.1,12.7,88.6,12.7z"/>
<path class="st0" d="M57.9,37.7c0,1.8-0.1,3.5-0.1,5.2c0,1.7-0.1,3.5-0.2,5.4c0,1.3-0.1,2.6-0.1,4c-0.2,5.6-0.4,11-0.4,15.3
	c0,0.1,0,0.2-0.1,0.2l0,0c0,0-0.1,0-0.1,0c0,0-0.1,0-0.1,0l0,0c-0.1,0-0.1-0.1-0.1-0.2c0-4.3-0.2-9.7-0.4-15.3c0-1.3-0.1-2.6-0.1-4
	c-0.1-2-0.1-3.9-0.2-5.7c0-1.8-0.1-3.7-0.1-5.5l0-0.2l0.1,0.1c0.3,0.1,0.5,0.2,0.8,0.3c0.3,0.1,0.6,0.2,0.9,0.3L57.9,37.7L57.9,37.7
	L57.9,37.7z M56,29.1c0-1.2,0.1-2.5,0.1-3.7c0-1.2,0.1-2.5,0.1-3.8l0-0.1l0.1,0c0.2,0,0.4,0.1,0.6,0.1c0.3,0,0.5,0.1,0.7,0.1l0.1,0
	l0,0.1c0,1.3,0.1,2.6,0.1,3.9c0,1.3,0.1,2.5,0.1,3.8l0,0.1l-0.1,0c-0.3-0.1-0.5-0.1-0.8-0.2l0,0l-0.9-0.2L56,29.1L56,29.1L56,29.1z
	 M56.3,18.3l0.1-3.2c0.2-5.3,0.4-10.3,0.4-14.4c0-0.1,0-0.2,0.1-0.2c0,0,0.1,0,0.1,0c0,0,0.1,0,0.1,0l0,0c0.1,0,0.1,0.1,0.1,0.2
	c0,4.1,0.2,9.1,0.4,14.4l0.1,3.2l0,0.1l-0.1,0c-0.2,0-0.4,0-0.5,0c-0.2,0-0.4,0-0.6,0l-0.1,0L56.3,18.3z"/>
<path class="st0" d="M64.5,20.1L63.2,22c-2.2-1.8-4.4-2.6-6.6-2.6c-7.7,0-9.5,5.7-9.5,8.7c0,6.1,4.1,6.8,8.8,7.9
	c5.9,1.5,9.7,2.8,9.7,5.5c0,3.5-3.4,5.9-6.5,6.1V49c5.2-0.3,9.4-3.9,9.4-9.6c0-4.4-1.9-6.9-7.3-8.1C50.4,29.1,49.8,28,49.8,26
	c0-0.8,0.8-5.3,6.6-5.2c4.2,0.2,6.6,3.1,7.7,7.2h1.6v-7.9H64.5L64.5,20.1z M54.9,46.8v1.7c-1.8-0.6-3.4-1.5-4.6-2.9l-1.6,2.5h-1.6
	v-9.3h1.6C49.7,42.4,51.8,45.4,54.9,46.8z"/>
</svg>
