<?xml version="1.0" encoding="utf-8"?>
<!-- Generator: Adobe Illustrator 19.2.1, SVG Export Plug-In . SVG Version: 6.00 Build 0)  -->
<svg version="1.1" id="Layer_1" xmlns="http://www.w3.org/2000/svg" xmlns:xlink="http://www.w3.org/1999/xlink" x="0px" y="0px"
	 viewBox="0 0 402.7 38.3" style="enable-background:new 0 0 402.7 38.3;" xml:space="preserve">
<style type="text/css">
	.st0{enable-background:new    ;}
	.st1{fill:#A7A9AC;}
</style>
<g id="Layer_1_1_">
	<g class="st0">
		<path d="M7.5,8.6h17.9l0.3,7.2h-0.6c-0.9-2.5-1.8-4.2-2.9-5.1c-1.1-0.9-2.8-1.3-5-1.3h-1v11.2h1.6c1.1,0,2-0.4,2.8-1.2
			c0.7-0.8,1.2-1.9,1.5-3.3h0.5v10.2H22c-0.4-1.7-0.9-3-1.5-3.7c-0.7-0.7-1.5-1.1-2.7-1.1h-1.6V32h4.3v0.8h-13V32h2V9.4h-2V8.6z"/>
		<path d="M39.9,24.6h1V22c0-2.2-0.1-3.7-0.4-4.4c-0.2-0.7-0.7-1.1-1.4-1.1c-0.4,0-0.8,0.1-1.1,0.3c-0.3,0.2-0.5,0.5-0.5,0.9
			s0.1,0.8,0.2,1.2h0.9c0.2,0.5,0.3,1.1,0.3,1.7c0,0.7-0.3,1.3-0.9,1.8s-1.3,0.7-2.2,0.7c-2,0-3-1-3-2.9c0-2.8,2.4-4.2,7.2-4.2
			c2.7,0,4.6,0.5,5.7,1.4c1,0.9,1.6,2.6,1.6,5.1v7c0,1.2,0.3,1.8,1,1.8c0.8,0,1.2-1.2,1.4-3.6l0.5,0c-0.1,2-0.5,3.4-1.1,4.2
			c-0.7,0.8-1.8,1.1-3.3,1.1c-2.8,0-4.3-0.9-4.8-2.6c-0.3,0.9-0.7,1.5-1.3,1.9c-0.6,0.4-1.5,0.6-2.6,0.6c-3.4,0-5.1-1.4-5.1-4.2
			c0-1.6,0.6-2.8,1.9-3.4C35.2,24.9,37.2,24.6,39.9,24.6z M38.7,31.2c0.1,0.3,0.4,0.5,0.7,0.5s0.7-0.3,1-0.9
			c0.3-0.6,0.5-1.4,0.5-2.4v-3.2h-0.2c-1.4,0-2.1,1-2.1,3.1v0.6C38.5,30.1,38.6,30.8,38.7,31.2z"/>
		<path d="M57.3,33.1v-6.2h0.4c0.6,2,1.4,3.4,2.4,4.2c1,0.8,2.3,1.2,3.8,1.2c2.3,0,3.5-0.7,3.5-2.2c0-0.6-0.3-1.1-0.9-1.4
			c-0.9-0.5-2-0.9-3.4-1.2c-1.6-0.4-2.9-1-3.9-1.7c-1.3-0.8-1.9-2.1-1.9-3.9s0.6-3.2,1.7-4.3c1.1-1.1,2.6-1.6,4.4-1.6
			c1.1,0,2.3,0.3,3.5,0.8c0.4,0.2,0.8,0.3,1,0.3c0.2,0,0.4-0.1,0.6-0.2c0.2-0.2,0.4-0.5,0.6-0.9h0.4v5.3H69c-1.2-3-3-4.5-5.5-4.5
			c-1.1,0-1.9,0.2-2.4,0.6c-0.5,0.4-0.8,0.9-0.8,1.4c0,0.3,0.1,0.6,0.2,0.8c0.2,0.2,0.3,0.3,0.4,0.4c0.1,0.1,0.2,0.2,0.4,0.3
			c0.2,0.1,0.4,0.2,0.5,0.2c0.1,0.1,0.4,0.1,0.6,0.2s0.5,0.1,0.6,0.2c1.6,0.4,2.7,0.7,3.4,1c0.7,0.3,1.3,0.6,2,1.1
			c1.3,0.9,1.9,2.3,1.9,4.2s-0.6,3.4-1.7,4.4c-1.2,1-2.7,1.5-4.7,1.5c-1.4,0-2.8-0.3-4.1-1c-0.3-0.2-0.5-0.3-0.7-0.3
			c-0.5,0-1,0.4-1.5,1.3H57.3z"/>
		<path d="M77.4,6.9h8.3v12.6c0.4-1.1,0.9-1.9,1.7-2.6c0.8-0.6,1.9-1,3.4-1c3.6,0,5.3,1.9,5.3,5.8v10.4h1.9v0.6h-9.8v-0.6h1.4V20.9
			c0-1.4-0.1-2.3-0.3-2.7s-0.5-0.6-1-0.6c-0.7,0-1.4,0.5-1.9,1.4c-0.6,1-0.8,2.1-0.8,3.5v9.5h1.5v0.6h-9.8v-0.6h1.9V7.5h-1.9V6.9z"
			/>
		<path d="M104.5,16.3h8.5v15.8h1.9v0.6h-10.2v-0.6h1.9V16.9h-2V16.3z M109.7,13.9c-1.2,0-2.1-0.3-2.6-0.9c-0.5-0.6-0.8-1.4-0.8-2.3
			s0.3-1.7,0.8-2.3c0.6-0.6,1.4-0.9,2.6-0.9s2,0.3,2.6,0.8c0.6,0.5,0.9,1.3,0.9,2.3c0,1-0.3,1.8-0.9,2.4
			C111.8,13.6,110.9,13.9,109.7,13.9z"/>
		<path d="M124,30.9c-1.5-1.5-2.2-3.6-2.2-6.3c0-2.7,0.8-4.9,2.4-6.3c1.6-1.5,3.8-2.2,6.6-2.2c2.9,0,5,0.7,6.4,2.1
			c1.4,1.4,2.1,3.5,2.1,6.3c0,5.9-2.9,8.8-8.8,8.8C127.7,33.1,125.5,32.4,124,30.9z M132.7,25.9V23c0-2.2-0.1-3.9-0.4-4.9
			c-0.2-1-0.8-1.5-1.7-1.5c-0.5,0-0.9,0.1-1.2,0.4c-0.3,0.3-0.5,0.8-0.7,1.4c-0.2,1-0.3,2.6-0.3,4.7v2.7c0,2.5,0.1,4,0.2,4.5
			s0.3,0.9,0.5,1.2c0.3,0.6,0.7,0.8,1.5,0.8c0.9,0,1.5-0.5,1.8-1.6C132.6,30.2,132.7,28.5,132.7,25.9z"/>
		<path d="M146.3,16.3h8.3v3.2c0.4-1.1,0.9-1.9,1.7-2.6c0.8-0.6,1.9-1,3.4-1c3.6,0,5.3,1.9,5.3,5.8v10.4h1.9v0.6h-9.8v-0.6h1.4V20.9
			c0-1.4-0.1-2.3-0.3-2.7s-0.5-0.6-1-0.6c-0.7,0-1.4,0.5-1.9,1.4c-0.6,1-0.8,2.1-0.8,3.5v9.5h1.5v0.6h-9.8v-0.6h1.9V16.9h-1.9V16.3z
			"/>
	</g>
	<g class="st0">
		<path d="M252.8,32.7l-0.4-2.4c-0.8,1.8-2.4,2.8-4.8,2.8c-2,0-3.5-0.7-4.6-2.1c-1.1-1.4-1.6-3.6-1.6-6.4c0-5.7,2.3-8.6,6.8-8.6
			c2,0,3.4,0.6,4,1.7V7.5h-2.1V6.9h8.6v25.3h1.7v0.6H252.8z M248.5,30.4c0.3,0.8,0.7,1.2,1.4,1.2c0.7,0,1.3-0.3,1.8-0.9
			c0.5-0.6,0.7-1.5,0.7-2.7v-7.5c0-1-0.2-1.8-0.6-2.5c-0.4-0.7-1-1-1.7-1s-1.3,0.5-1.6,1.5c-0.3,1-0.4,2.8-0.4,5.3v1.8
			C248.1,28,248.2,29.6,248.5,30.4z"/>
		<path d="M269.8,30.8c-1.5-1.5-2.2-3.7-2.2-6.4c0-2.7,0.8-4.8,2.5-6.3c1.7-1.4,3.8-2.2,6.4-2.2c5.2,0,7.7,2.6,7.5,7.9h-9.7v1.3
			c0,2.3,0.3,4,0.9,5.1c0.6,1.2,1.6,1.7,3,1.7c2.7,0,4.4-1.4,5.2-4.3l0.6,0.1c-0.4,1.7-1.2,2.9-2.4,3.9c-1.1,0.9-2.8,1.4-5.1,1.4
			C273.5,33.1,271.2,32.3,269.8,30.8z M274.2,23.2h3.6v-1.7c0-1.9-0.1-3.1-0.3-3.8c-0.2-0.7-0.7-1-1.3-1c-0.7,0-1.1,0.4-1.4,1.1
			s-0.5,2-0.5,3.7V23.2z"/>
		<path d="M291.1,16.3h8.3v3.2c0.8-2.3,2.4-3.5,5-3.5c2.6,0,4.2,1.2,4.7,3.7c0.8-2.5,2.5-3.7,5.1-3.7c3.4,0,5.1,1.9,5.1,5.8v10.4
			h1.9v0.6h-9.6v-0.6h1.2V20.9c0-1.7-0.1-2.8-0.4-3.1c-0.1-0.1-0.3-0.2-0.6-0.2c-0.7,0-1.3,0.4-1.8,1.3c-0.5,0.9-0.8,2-0.8,3.4v9.7
			h1.2v0.6h-8.9v-0.6h1.2V20.9c0-1.7-0.2-2.8-0.4-3.1c-0.1-0.1-0.3-0.2-0.6-0.2c-0.6,0-1.2,0.5-1.7,1.5c-0.5,1-0.8,2.1-0.8,3.5v9.5
			h1.2v0.6h-9.6v-0.6h1.9V16.9h-1.9V16.3z"/>
		<path d="M336,24.6h1V22c0-2.2-0.1-3.7-0.4-4.4c-0.2-0.7-0.7-1.1-1.4-1.1c-0.4,0-0.8,0.1-1.1,0.3c-0.3,0.2-0.5,0.5-0.5,0.9
			s0.1,0.8,0.2,1.2h0.9c0.2,0.5,0.3,1.1,0.3,1.7c0,0.7-0.3,1.3-0.9,1.8c-0.6,0.5-1.3,0.7-2.2,0.7c-2,0-3-1-3-2.9
			c0-2.8,2.4-4.2,7.2-4.2c2.7,0,4.6,0.5,5.7,1.4s1.6,2.6,1.6,5.1v7c0,1.2,0.3,1.8,1,1.8c0.8,0,1.2-1.2,1.4-3.6l0.5,0
			c-0.1,2-0.5,3.4-1.1,4.2c-0.7,0.8-1.8,1.1-3.3,1.1c-2.8,0-4.3-0.9-4.8-2.6c-0.3,0.9-0.7,1.5-1.3,1.9c-0.6,0.4-1.5,0.6-2.6,0.6
			c-3.4,0-5.1-1.4-5.1-4.2c0-1.6,0.6-2.8,1.9-3.4C331.3,24.9,333.3,24.6,336,24.6z M334.8,31.2c0.1,0.3,0.4,0.5,0.7,0.5
			s0.7-0.3,1-0.9c0.3-0.6,0.5-1.4,0.5-2.4v-3.2h-0.2c-1.4,0-2.1,1-2.1,3.1v0.6C334.6,30.1,334.7,30.8,334.8,31.2z"/>
		<path d="M352.7,16.3h8.3v3.2c0.4-1.1,0.9-1.9,1.7-2.6c0.8-0.6,1.9-1,3.4-1c3.6,0,5.3,1.9,5.3,5.8v10.4h1.9v0.6h-9.8v-0.6h1.4V20.9
			c0-1.4-0.1-2.3-0.3-2.7c-0.2-0.4-0.5-0.6-1-0.6c-0.7,0-1.4,0.5-1.9,1.4s-0.8,2.1-0.8,3.5v9.5h1.5v0.6h-9.8v-0.6h1.9V16.9h-1.9
			V16.3z"/>
		<path d="M391.6,32.7l-0.4-2.4c-0.8,1.8-2.4,2.8-4.8,2.8c-2,0-3.5-0.7-4.6-2.1c-1.1-1.4-1.6-3.6-1.6-6.4c0-5.7,2.3-8.6,6.8-8.6
			c2,0,3.4,0.6,4,1.7V7.5h-2.1V6.9h8.6v25.3h1.7v0.6H391.6z M387.2,30.4c0.3,0.8,0.7,1.2,1.4,1.2c0.7,0,1.3-0.3,1.8-0.9
			c0.5-0.6,0.7-1.5,0.7-2.7v-7.5c0-1-0.2-1.8-0.6-2.5c-0.4-0.7-1-1-1.7-1s-1.3,0.5-1.6,1.5c-0.3,1-0.4,2.8-0.4,5.3v1.8
			C386.9,28,387,29.6,387.2,30.4z"/>
	</g>
	<g class="st0">
		<path class="st1" d="M194.6,20.6h3.7v7h0.9v0.3h-4.5v-0.3h0.8v-6.7h-0.9V20.6z M196.9,19.6c-0.5,0-0.9-0.1-1.2-0.4
			c-0.2-0.3-0.3-0.6-0.3-1s0.1-0.7,0.4-1s0.6-0.4,1.1-0.4c0.5,0,0.9,0.1,1.2,0.4s0.4,0.6,0.4,1c0,0.4-0.1,0.8-0.4,1.1
			C197.8,19.5,197.4,19.6,196.9,19.6z"/>
		<path class="st1" d="M202.5,20.6h3.7v1.4c0.2-0.5,0.4-0.8,0.7-1.1c0.3-0.3,0.8-0.4,1.5-0.4c1.6,0,2.4,0.9,2.4,2.6v4.6h0.9v0.3
			h-4.3v-0.3h0.6v-5c0-0.6,0-1-0.1-1.2c-0.1-0.2-0.2-0.3-0.4-0.3c-0.3,0-0.6,0.2-0.9,0.6s-0.4,0.9-0.4,1.6v4.2h0.7v0.3h-4.3v-0.3
			h0.8v-6.7h-0.8V20.6z"/>
	</g>
</g>
<g id="Layer_2">
</g>
</svg>
