<?xml version="1.0" encoding="utf-8"?>
<!-- Generator: Adobe Illustrator 19.2.1, SVG Export Plug-In . SVG Version: 6.00 Build 0)  -->
<svg version="1.1" id="Layer_1" xmlns="http://www.w3.org/2000/svg" xmlns:xlink="http://www.w3.org/1999/xlink" x="0px" y="0px"
	 viewBox="0 0 17 21" style="enable-background:new 0 0 17 21;" xml:space="preserve">
<style type="text/css">
	.st0{fill-rule:evenodd;clip-rule:evenodd;fill:#231F20;}
</style>
<path class="st0" d="M11.4,12.7h0.8l4.9,4.9L15.5,19l-4.9-4.9v-0.8l-0.3-0.3c-1.1,1-2.5,1.6-4.1,1.6C2.8,14.6,0,11.8,0,8.3
	C0,4.8,2.8,2,6.3,2c3.5,0,6.3,2.8,6.3,6.3c0,1.6-0.6,3-1.6,4.1L11.4,12.7z M6.3,3.9c-2.4,0-4.4,1.9-4.4,4.4s1.9,4.4,4.4,4.4
	c2.4,0,4.4-1.9,4.4-4.4S8.7,3.9,6.3,3.9z"/>
</svg>
